<svg width="24" height="24" viewBox="0 0 24 24" fill="none" xmlns="http://www.w3.org/2000/svg">
<g id="search 1" clip-path="url(#clip0_6_123)">
<path id="Vector" d="M5.13758 14.0092L4.33065 17.0216L1.38136 17.084C0.499949 15.4491 0 13.5787 0 11.5911C0 9.669 0.46744 7.85647 1.29601 6.2605H1.29664L3.92235 6.74188L5.07256 9.35183C4.83182 10.0537 4.70061 10.8071 4.70061 11.5911C4.7007 12.4419 4.85482 13.2571 5.13758 14.0092Z" fill="#FBBB00"/>
<path id="Vector_2" d="M22.9793 9.42529C23.1124 10.1265 23.1818 10.8506 23.1818 11.5906C23.1818 12.4205 23.0945 13.2299 22.9283 14.0107C22.3641 16.6677 20.8897 18.9878 18.8473 20.6296L18.8467 20.629L15.5395 20.4602L15.0714 17.5383C16.4266 16.7435 17.4858 15.4997 18.0437 14.0107H11.8457V9.42529H18.1341H22.9793Z" fill="#518EF8"/>
<path id="Vector_3" d="M18.8467 20.6295L18.8473 20.6301C16.861 22.2267 14.3377 23.182 11.5909 23.182C7.1768 23.182 3.33908 20.7148 1.38135 17.084L5.13757 14.0093C6.11642 16.6217 8.63649 18.4813 11.5909 18.4813C12.8608 18.4813 14.0505 18.138 15.0713 17.5388L18.8467 20.6295Z" fill="#28B446"/>
<path id="Vector_4" d="M18.9895 2.66844L15.2345 5.74257C14.178 5.08216 12.9291 4.70066 11.591 4.70066C8.56975 4.70066 6.00255 6.64562 5.07274 9.35169L1.29678 6.26036H1.29614C3.22521 2.54108 7.11134 0 11.591 0C14.4034 0 16.9821 1.0018 18.9895 2.66844Z" fill="#F14336"/>
</g>
<defs>
<clipPath id="clip0_6_123">
<rect width="23.1818" height="23.1818" fill="white"/>
</clipPath>
</defs>
</svg>
